<svg xmlns="http://www.w3.org/2000/svg" width="375" viewBox="0 0 375 375" height="375" version="1.0"><g fill="#845F49"><g><g><path d="M -14.503906 -24.925781 L -14.351562 -24.679688 C -12.246094 -25.992188 -11.019531 -24.347656 -8.015625 -19.527344 L -1.25 -8.660156 C 1.75 -3.839844 2.6875 -2.011719 0.582031 -0.703125 L 0.734375 -0.457031 L 7.339844 -4.570312 L 7.1875 -4.816406 C 5.082031 -3.503906 1.980469 -4.019531 -2.453125 -11.136719 L -4.390625 -14.246094 L -10.902344 -24.757812 C -2.214844 -19.097656 2.945312 -15.722656 11.90625 -9.894531 L 12.125 -10.03125 C 10.105469 -19.980469 8.386719 -28.246094 6.625 -36.964844 L 17.125 -20.105469 C 20.128906 -15.285156 21.0625 -13.457031 18.957031 -12.144531 L 19.109375 -11.902344 L 25.714844 -16.015625 L 25.5625 -16.261719 C 23.460938 -14.949219 22.230469 -16.59375 19.230469 -21.414062 L 12.464844 -32.28125 C 9.460938 -37.101562 8.527344 -38.929688 10.632812 -40.238281 L 10.480469 -40.484375 L 6.171875 -37.800781 L 11.113281 -13.507812 L -10.566406 -27.378906 Z M -14.503906 -24.925781" transform="translate(95.58 69.516)"/></g></g></g><g fill="#845F49"><g><g><path d="M 0.84375 -0.199219 L 3.085938 -0.726562 C 6.035156 -1.417969 8.578125 -1.421875 11.046875 -2 C 19.691406 -4.03125 22.167969 -11.894531 20.363281 -19.585938 C 18.558594 -27.273438 12.839844 -33.214844 4.195312 -31.1875 C 1.726562 -30.605469 -0.554688 -29.480469 -3.5 -28.789062 L -5.746094 -28.261719 L -5.679688 -27.980469 C -3.265625 -28.546875 -2.632812 -26.59375 -1.332031 -21.066406 L 1.59375 -8.605469 C 2.890625 -3.078125 3.1875 -1.042969 0.777344 -0.476562 Z M -0.632812 -28.808594 C 0.875 -29.695312 2.4375 -30.359375 4.261719 -30.789062 C 11.191406 -32.414062 16.152344 -26.679688 17.949219 -19.019531 C 19.746094 -11.359375 17.859375 -4.015625 10.929688 -2.386719 C 9.105469 -1.960938 7.410156 -1.859375 5.664062 -1.980469 Z M -0.632812 -28.808594" transform="translate(140.515 45.813)"/></g></g></g><g fill="#845F49"><g><g><path d="M 2.324219 -28.441406 C 4.074219 -28.300781 4.867188 -26.644531 5.871094 -23.378906 L 13.082031 1.648438 L 13.371094 1.671875 L 24.546875 -21.855469 C 26.011719 -24.945312 27.117188 -26.417969 28.871094 -26.273438 L 28.894531 -26.5625 L 20.761719 -27.226562 L 20.738281 -26.9375 C 24.789062 -26.609375 24.484375 -23.597656 23.550781 -21.359375 C 20.78125 -14.730469 17.527344 -8.171875 14.589844 -1.585938 L 8.503906 -22.675781 C 7.648438 -25.664062 7.695312 -28.003906 11.746094 -27.671875 L 11.769531 -27.960938 L 2.347656 -28.730469 Z M 2.324219 -28.441406" transform="translate(185.756 38.328)"/></g></g></g><g fill="#845F49"><g><g><path d="M 11.507812 -26.441406 L 10.0625 -22.828125 L 10.332031 -22.722656 C 10.363281 -22.804688 10.304688 -22.734375 10.347656 -22.839844 C 11.0625 -24.632812 15.015625 -24.730469 19.617188 -22.890625 L 11.996094 -3.832031 C 9.886719 1.441406 8.964844 3.277344 6.664062 2.355469 L 6.558594 2.621094 L 13.542969 5.417969 L 13.648438 5.148438 C 11.347656 4.226562 12.160156 2.347656 14.269531 -2.921875 L 21.890625 -21.980469 C 26.496094 -20.136719 29.289062 -17.34375 28.574219 -15.550781 C 28.53125 -15.445312 28.535156 -15.535156 28.503906 -15.453125 L 28.769531 -15.347656 L 30.214844 -18.960938 Z M 11.507812 -26.441406" transform="translate(231.758 45.434)"/></g></g></g><g fill="#845F49"><g><g><path d="M 17.40625 -22.628906 C 19.417969 -21.179688 18.359375 -19.417969 15.035156 -14.816406 L 7.542969 -4.4375 C 4.21875 0.164062 2.878906 1.722656 0.871094 0.273438 L 0.699219 0.507812 L 7.011719 5.0625 L 7.179688 4.828125 C 5.171875 3.378906 6.226562 1.617188 9.550781 -2.988281 L 17.042969 -13.363281 C 20.367188 -17.96875 21.707031 -19.527344 23.71875 -18.074219 L 23.886719 -18.308594 L 17.574219 -22.863281 Z M 17.40625 -22.628906" transform="translate(269.715 64.124)"/></g></g></g><g fill="#845F49"><g><g><path d="M 16.015625 -23.636719 C 18.109375 -22.308594 17.15625 -20.488281 14.117188 -15.691406 L 7.261719 -4.882812 C 4.21875 -0.0898438 2.976562 1.546875 0.882812 0.21875 L 0.730469 0.464844 L 7.304688 4.632812 L 7.457031 4.386719 C 5.363281 3.058594 6.3125 1.238281 9.355469 -3.554688 L 16.210938 -14.363281 C 19.25 -19.160156 20.492188 -20.796875 22.585938 -19.46875 L 22.742188 -19.710938 L 16.167969 -23.878906 Z M 16.015625 -23.636719" transform="translate(92.781 327.818)"/></g></g></g><g fill="#845F49"><g><g><path d="M 9.554688 -27.210938 L 9.46875 -26.933594 C 11.832031 -26.183594 11.375 -24.179688 9.65625 -18.769531 L 5.777344 -6.570312 C 4.058594 -1.160156 3.273438 0.738281 0.910156 -0.0117188 L 0.824219 0.261719 L 8.242188 2.621094 L 8.328125 2.34375 C 5.964844 1.59375 4.734375 -2.335938 7.277344 -10.332031 L 11.867188 -24.78125 L 20.839844 7.230469 L 21.117188 7.316406 L 27.59375 -13.066406 C 29.3125 -18.480469 30.097656 -20.378906 32.460938 -19.628906 L 32.550781 -19.902344 L 25.132812 -22.257812 L 25.042969 -21.984375 C 27.40625 -21.234375 28.636719 -17.304688 26.097656 -9.308594 L 22.289062 2.667969 L 14.363281 -25.683594 Z M 9.554688 -27.210938" transform="translate(123.717 344.757)"/></g></g></g><g fill="#845F49"><g><g><path d="M 0.863281 0 L 3.171875 -0.0078125 C 6.199219 -0.0117188 8.675781 0.558594 11.214844 0.554688 C 20.09375 0.539062 24.289062 -6.5625 24.273438 -14.460938 C 24.257812 -22.359375 20.035156 -29.441406 11.15625 -29.421875 C 8.621094 -29.417969 6.140625 -28.835938 3.117188 -28.832031 L 0.808594 -28.828125 L 0.808594 -28.539062 C 3.289062 -28.542969 3.464844 -26.496094 3.476562 -20.820312 L 3.5 -8.019531 C 3.511719 -2.339844 3.34375 -0.292969 0.863281 -0.289062 Z M 5.914062 -28.203125 C 7.582031 -28.726562 9.253906 -29.015625 11.128906 -29.019531 C 18.25 -29.035156 21.777344 -22.324219 21.792969 -14.453125 C 21.808594 -6.585938 18.304688 0.136719 11.183594 0.152344 C 9.3125 0.15625 7.636719 -0.128906 5.964844 -0.644531 Z M 5.914062 -28.203125" transform="translate(174.426 356.62)"/></g></g></g><g fill="#845F49"><g><g><path d="M -6.5 -27.800781 C -4.101562 -28.4375 -3.410156 -26.503906 -1.949219 -21.015625 L 1.339844 -8.648438 C 2.796875 -3.160156 3.15625 -1.136719 0.761719 -0.5 L 0.835938 -0.222656 L 8.355469 -2.222656 L 8.28125 -2.5 C 5.886719 -1.863281 5.195312 -3.796875 3.734375 -9.285156 L 0.445312 -21.652344 C -1.015625 -27.140625 -1.371094 -29.164062 1.023438 -29.800781 L 0.949219 -30.078125 L -6.574219 -28.078125 Z M -6.5 -27.800781" transform="translate(225.864 352.154)"/></g></g></g><g fill="#845F49"><g><g><path d="M -1.734375 -4.816406 C -0.257812 -2.207031 2.691406 -0.863281 5.601562 -2.511719 C 10.59375 -5.339844 11.027344 -11.414062 7.574219 -17.507812 C 6.890625 -18.714844 6.273438 -19.6875 5.71875 -20.433594 L 13.472656 -13.996094 C 15.863281 -12 17.136719 -10.039062 13.601562 -8.039062 L 13.742188 -7.785156 L 21.96875 -12.449219 L 21.828125 -12.699219 C 20.296875 -11.832031 18.714844 -12.757812 16.046875 -14.890625 L -3.984375 -31.535156 L -4.234375 -31.394531 C -3.457031 -26.335938 -2.976562 -23.328125 -2.21875 -18.421875 C -2.101562 -17.628906 -1.59375 -17.019531 -0.890625 -17.417969 C 0.539062 -18.230469 -0.199219 -21.289062 1.003906 -21.972656 C 1.328125 -22.15625 1.71875 -22.109375 1.988281 -21.632812 C 3.464844 -19.027344 -5.230469 -10.984375 -1.734375 -4.816406 Z M 0.128906 -6.5 C -3.382812 -12.695312 4.199219 -18.378906 2.292969 -21.742188 C 1.921875 -22.394531 1.386719 -22.519531 0.910156 -22.25 C -0.417969 -21.496094 0.144531 -18.335938 -1.007812 -17.683594 C -1.410156 -17.457031 -1.78125 -17.644531 -1.953125 -18.707031 L -3.414062 -28.015625 L 4.152344 -21.734375 C 5.441406 -20.511719 6.300781 -19.171875 7.351562 -17.316406 C 9.679688 -13.203125 10.613281 -6.941406 6.425781 -4.566406 C 3.964844 -3.175781 1.464844 -4.140625 0.128906 -6.5 Z M 0.128906 -6.5" transform="translate(259.266 340.906)"/></g></g></g></svg>