<svg xmlns="http://www.w3.org/2000/svg" width="375" viewBox="0 0 375 375" height="375" version="1.0"><defs><clipPath id="a"><path d="M 167 95.222656 L 209 95.222656 L 209 206 L 167 206 Z M 167 95.222656"/></clipPath><clipPath id="b"><path d="M 187 239 L 200 239 L 200 279.722656 L 187 279.722656 Z M 187 239"/></clipPath><clipPath id="c"><path d="M 37.5 233 L 181 233 L 181 273 L 37.5 273 Z M 37.5 233"/></clipPath><clipPath id="d"><path d="M 193 233 L 332.25 233 L 332.25 273 L 193 273 Z M 193 233"/></clipPath></defs><g clip-path="url(#a)"><path fill="#8B2025" d="M 180.851562 152.929688 C 181.988281 151.082031 183.371094 149.386719 184.742188 147.703125 C 189.121094 152.589844 195.816406 163.546875 197.496094 167.726562 L 197.617188 167.75 C 198.003906 168.726562 199.542969 171.605469 201.453125 176.683594 C 205.128906 186.1875 206.9375 195.945312 207.0625 205.507812 C 208.011719 202.332031 208.011719 201.429688 208.011719 196 C 207.96875 195.410156 207.757812 194.835938 207.882812 194.25 C 208.132812 193.097656 207.507812 191.796875 207.570312 190.417969 C 207.539062 190.367188 207.339844 188.050781 207.546875 187.191406 C 207.71875 186.894531 207.511719 186.320312 207.460938 186.222656 C 207.335938 185.988281 207.402344 185.875 207.226562 184.953125 C 206.503906 181.164062 204.457031 179.824219 203.890625 174.527344 C 203.757812 173.273438 203.828125 171.523438 203.992188 169.753906 C 203.078125 167.917969 202.085938 166.148438 201.015625 164.457031 C 202.503906 163.304688 203.992188 162.152344 205.480469 161 C 205.507812 160.839844 205.53125 160.675781 205.554688 160.511719 C 205.585938 160.269531 205.558594 159.917969 205.652344 159.691406 C 206.234375 158.246094 205.675781 158.589844 206.203125 157.855469 C 206.386719 157.597656 206.488281 157.335938 206.800781 156.324219 C 207.53125 153.953125 207.644531 152.621094 207.847656 151.566406 C 205.292969 153.601562 202.902344 155.679688 200.914062 157.519531 C 198.5 154.0625 195.910156 150.722656 193.132812 147.542969 C 192.289062 146.273438 193.792969 137.160156 198.527344 126.132812 C 198.464844 125.878906 198.398438 125.625 198.332031 125.371094 C 198.300781 125.363281 198.269531 125.359375 198.238281 125.355469 C 198.183594 125.128906 198.125 124.902344 198.070312 124.675781 C 198.101562 124.675781 198.132812 124.675781 198.164062 124.675781 C 198.097656 124.671875 197.949219 124.0625 197.917969 123.980469 C 197.773438 123.625 197.660156 123.265625 197.609375 122.878906 C 197.664062 122.867188 197.71875 122.855469 197.769531 122.84375 C 197.660156 122.367188 197.382812 121.929688 197 121.625 C 197.054688 121.558594 197.183594 121.589844 197.207031 121.671875 C 197.265625 121.644531 197.324219 121.621094 197.386719 121.59375 C 197.167969 121.359375 196.992188 121.089844 196.863281 120.796875 C 196.636719 120.269531 196.902344 120.453125 196.910156 120.351562 C 196.917969 120.285156 196.824219 120.265625 196.820312 120.222656 C 196.804688 120.101562 196.683594 120.0625 196.597656 120.003906 C 196.398438 119.6875 195.964844 119.460938 195.761719 119.246094 C 195.652344 119.207031 195.527344 119.1875 195.449219 119.09375 C 195.207031 118.871094 194.839844 118.917969 194.589844 118.710938 C 194.25 118.480469 193.539062 118.546875 193.304688 118.375 C 193.265625 118.367188 192.660156 118.101562 192.136719 118.238281 C 191.90625 118.210938 191.671875 118.277344 191.445312 118.332031 C 191.433594 118.347656 191.410156 118.378906 191.398438 118.394531 C 191.378906 118.394531 191.339844 118.394531 191.320312 118.390625 C 191.21875 118.285156 191.085938 118.207031 190.9375 118.199219 C 190.777344 118.1875 190.621094 118.09375 190.460938 118.152344 C 190.269531 118.214844 190.050781 118.144531 189.875 118.257812 C 189.738281 118.332031 189.582031 118.246094 189.445312 118.296875 C 189.113281 118.449219 188.644531 118.484375 188.285156 118.574219 C 188.199219 118.769531 187.984375 118.902344 187.773438 118.886719 C 187.578125 119.050781 187.386719 119.214844 187.195312 119.375 C 186.988281 119.761719 186.445312 120.175781 186.132812 120.738281 C 186.113281 120.78125 185.855469 121.34375 185.863281 121.390625 C 185.875 121.492188 186.035156 121.515625 185.832031 121.785156 C 185.523438 122.195312 185.023438 123.152344 185.539062 122.988281 C 185.546875 123.023438 185.542969 123.054688 185.542969 123.09375 C 185.5625 123.09375 185.605469 123.097656 185.628906 123.097656 C 185.613281 123.324219 185.441406 123.488281 185.382812 123.699219 C 185.359375 123.800781 185.265625 123.859375 185.222656 123.953125 C 185.207031 123.984375 185.183594 124.007812 185.152344 124.019531 C 185.132812 124.109375 185.109375 124.199219 185.097656 124.292969 C 185.082031 124.308594 185.046875 124.335938 185.03125 124.351562 C 185.027344 124.398438 185.027344 124.445312 185.027344 124.496094 C 185.058594 124.492188 185.117188 124.488281 185.148438 124.488281 C 185.140625 124.621094 185.046875 124.71875 185.019531 124.84375 C 184.972656 125.035156 184.976562 125.238281 184.898438 125.421875 C 184.871094 125.5 184.886719 125.589844 184.871094 125.671875 C 184.789062 125.890625 184.800781 126.132812 184.742188 126.355469 C 184.6875 126.546875 184.695312 126.746094 184.695312 126.945312 C 184.703125 127.023438 184.613281 127.058594 184.59375 127.125 C 184.644531 127.304688 184.605469 127.492188 184.617188 127.679688 C 184.59375 127.714844 183.945312 128.226562 184.023438 129.105469 C 184.035156 129.226562 184.074219 129.34375 184.074219 129.46875 C 184.074219 129.609375 184.058594 129.753906 184.113281 129.890625 C 184.292969 130.371094 184 131.066406 184.546875 131.710938 C 184.691406 131.820312 184.816406 131.96875 185 132.023438 C 185.367188 132.109375 185.761719 132.101562 186.117188 131.972656 C 186.167969 132.023438 186.214844 132.082031 186.253906 132.148438 C 186.601562 132.140625 186.265625 132.527344 186.976562 133.925781 C 187.023438 134.023438 187.066406 134.132812 187.132812 134.21875 C 187.203125 134.316406 187.289062 134.367188 187.308594 134.5 C 187.347656 134.726562 187.210938 135.046875 187.28125 135.5625 C 187.28125 135.5625 187.71875 137.136719 187.878906 138.058594 C 188.015625 138.832031 188.039062 138.53125 187.78125 140.261719 C 187.648438 141.152344 187.296875 142.035156 186.996094 142.761719 C 186.535156 143.636719 186.46875 143.207031 186.210938 143.371094 C 186.113281 143.425781 186.007812 143.457031 185.898438 143.484375 C 185.816406 143.566406 185.703125 143.59375 185.601562 143.636719 C 185.511719 143.683594 185.4375 143.75 185.363281 143.816406 C 185.125 143.769531 185.222656 143.675781 184.535156 144.097656 C 184.386719 144.179688 184.265625 144.296875 184.152344 144.417969 C 184.089844 144.488281 184.019531 144.621094 183.925781 144.652344 C 183.820312 144.6875 183.6875 144.621094 183.566406 144.648438 C 183.34375 144.695312 183.097656 144.917969 182.90625 144.710938 C 182.648438 144.429688 182.316406 143.761719 181.757812 143.082031 C 181.464844 142.769531 181.203125 142.433594 180.914062 142.121094 C 180.605469 141.761719 179.691406 141 178.835938 140.136719 C 174.621094 135.875 176.277344 138.5625 173.878906 132.195312 C 172.65625 128.832031 171.441406 127.09375 171.589844 125.582031 C 172.058594 123.703125 178.570312 118.625 180.089844 117.527344 C 182.046875 116.121094 190.222656 111.539062 190.257812 111.523438 C 190.28125 111.523438 190.324219 111.519531 190.34375 111.519531 C 190.484375 111.351562 190.46875 111.109375 190.617188 110.949219 C 190.640625 110.941406 190.683594 110.929688 190.707031 110.925781 C 190.753906 110.789062 190.917969 110.792969 191.039062 110.769531 C 191.09375 110.707031 191.144531 110.640625 191.195312 110.570312 C 191.332031 110.71875 191.351562 110.90625 191.796875 110.90625 C 191.800781 110.929688 191.804688 110.972656 191.808594 110.992188 C 191.832031 111 191.875 111.015625 191.898438 111.023438 C 192.980469 112.519531 197.496094 113.511719 203.214844 116.679688 C 204.046875 115.214844 204.929688 113.746094 205.871094 112.285156 C 202.347656 111.097656 199.332031 110.324219 199.308594 110.316406 C 197.261719 109.90625 196.582031 109.082031 195.789062 108.902344 C 195.5625 108.832031 195.640625 108.984375 195.128906 108.207031 C 194.640625 107.265625 194.183594 105.652344 194.140625 105.457031 C 193.449219 103.214844 193.058594 101.792969 193.058594 99.460938 C 193.0625 99.300781 192.988281 99.152344 192.941406 99 C 192.773438 98.820312 192.886719 98.796875 192.746094 97.882812 C 192.632812 97.574219 192.761719 97.289062 192.625 96.644531 C 192.628906 96.464844 192.546875 96.296875 192.554688 96.117188 C 192.601562 95.964844 192.601562 95.78125 192.554688 95.632812 C 192.5625 95.484375 192.484375 95.355469 192.390625 95.246094 C 192.210938 95.226562 192.066406 95.339844 191.933594 95.441406 C 191.800781 95.550781 191.753906 95.722656 191.707031 95.878906 C 191.648438 95.851562 191.59375 95.8125 191.558594 95.757812 C 191.5 95.667969 191.113281 95.351562 191.015625 95.667969 C 190.941406 95.917969 190.882812 96.171875 190.820312 96.425781 C 190.792969 96.542969 190.78125 96.816406 190.703125 96.914062 C 190.703125 96.914062 190.566406 97.566406 190.507812 97.78125 C 190.449219 98.023438 190.316406 98.285156 190.285156 98.53125 C 190.171875 99.378906 189.914062 99.03125 189.738281 100.3125 C 189.59375 102.378906 189.082031 103.390625 189.054688 103.472656 C 188.640625 104.597656 188.046875 107.488281 186.820312 109.050781 C 186.730469 109.152344 186.289062 109.199219 185.925781 109.394531 C 185.195312 109.757812 184.945312 110.222656 183.230469 110.890625 C 176.125 113.652344 170.792969 116.660156 167.675781 118.699219 C 172.324219 127.363281 175.78125 137.148438 177.054688 146.972656 C 176.367188 147.777344 175.6875 148.589844 175.011719 149.40625 C 176.175781 151.484375 176.382812 150.515625 177.664062 155.691406 C 177.882812 156.574219 177.886719 156.800781 178.035156 157.136719 C 178.914062 155.71875 179.824219 154.328125 180.761719 152.960938 Z M 180.851562 152.929688"/></g><path fill="#8B2025" d="M 163.882812 200.847656 C 161.835938 202.398438 159.867188 203.980469 158.371094 205.222656 C 158.375 205.511719 158.382812 205.796875 158.394531 206.085938 C 158.6875 211.65625 159.863281 217.351562 161.445312 222.746094 C 161.828125 222.890625 162.503906 223.152344 162.550781 223.179688 C 162.699219 223.210938 162.753906 223.238281 162.839844 223.289062 C 162.976562 223.296875 163.257812 223.449219 163.464844 223.484375 C 163.710938 223.617188 164.925781 223.984375 166.257812 224.371094 C 164.96875 219.585938 164.101562 214.558594 163.824219 209.375 C 163.699219 206.507812 163.722656 203.664062 163.882812 200.847656 Z M 163.882812 200.847656"/><g clip-path="url(#b)"><path fill="#8B2025" d="M 193.710938 266.019531 C 193.707031 265.992188 193.699219 265.96875 193.695312 265.949219 C 193.570312 265.125 193.664062 265.339844 193.730469 264.675781 C 193.964844 262.34375 194.082031 262.882812 194.425781 261.242188 C 194.441406 261.238281 194.46875 261.234375 194.480469 261.234375 C 194.421875 261.117188 194.503906 261 194.496094 260.878906 C 194.617188 260.777344 194.671875 260.785156 194.898438 260.671875 C 193.367188 261.109375 192.097656 261.414062 191.15625 261.582031 C 191.429688 261.269531 193.277344 259.988281 196.070312 257.753906 C 196.300781 256.914062 196.570312 255.808594 196.570312 255.808594 C 196.824219 255.132812 197.6875 252.230469 197.960938 251.308594 C 197.746094 251.484375 197.582031 251.613281 197.472656 251.691406 C 197.667969 251.355469 197.859375 251.023438 198.046875 250.6875 C 198.042969 250.507812 198.039062 250.324219 198.078125 250.148438 C 198.21875 249.078125 198.703125 248.511719 198.773438 247.953125 C 198.886719 246.667969 199.347656 245.609375 199.402344 245.019531 C 199.414062 244.605469 199.484375 244.195312 199.566406 243.789062 C 199.808594 242.085938 199.925781 240.773438 199.980469 239.667969 C 197.351562 245.460938 194.027344 250.890625 190.074219 255.8125 C 190.039062 256.035156 189.976562 256.253906 189.980469 256.484375 C 189.917969 256.679688 189.992188 257.152344 189.777344 257.597656 C 189.695312 257.90625 189.558594 257.800781 189.289062 258.1875 C 189.289062 258.257812 189.289062 258.332031 189.289062 258.40625 C 189.601562 259.019531 190.023438 259.207031 190.175781 259.871094 C 190.238281 259.953125 190.273438 260.070312 190.214844 260.167969 C 190.214844 260.167969 190.027344 260.863281 190.027344 260.863281 C 190.011719 260.960938 190.046875 261.070312 189.988281 261.15625 C 189.980469 261.253906 190.003906 261.359375 189.957031 261.449219 C 189.949219 261.480469 189.945312 261.515625 189.941406 261.550781 C 189.9375 261.554688 189.804688 262.050781 189.796875 262.105469 C 189.773438 262.140625 189.753906 262.175781 189.730469 262.214844 C 189.730469 262.234375 189.726562 262.269531 189.726562 262.289062 C 189.59375 262.480469 189.425781 263.023438 189.410156 263.058594 C 189 264.09375 189 263.773438 188.484375 264.707031 C 188.484375 264.726562 188.480469 264.761719 188.480469 264.78125 C 188.457031 264.816406 188.433594 264.851562 188.410156 264.890625 C 188.410156 264.910156 188.40625 264.945312 188.40625 264.964844 C 188.34375 265.058594 188.230469 265.351562 188.21875 265.40625 C 188.199219 265.441406 188.175781 265.476562 188.15625 265.511719 C 188.15625 265.605469 188.148438 265.699219 188.117188 265.789062 C 188.035156 266.023438 188.109375 266.277344 188.070312 266.519531 C 188.039062 266.617188 188.039062 266.722656 188.039062 266.828125 C 188.03125 266.84375 188.015625 266.875 188.007812 266.890625 C 188.007812 267.296875 187.964844 267.703125 187.925781 268.109375 C 187.878906 268.179688 187.902344 268.265625 187.886719 268.347656 C 187.613281 269.527344 187.628906 268.652344 187.605469 270.078125 C 187.605469 270.113281 187.5 270.875 187.613281 271.261719 C 187.621094 271.277344 187.851562 272.355469 187.871094 272.582031 C 187.871094 272.597656 187.863281 272.625 187.859375 272.636719 C 187.90625 272.730469 187.898438 272.832031 187.894531 272.929688 C 187.886719 273.070312 187.945312 273.207031 187.9375 273.351562 C 187.984375 273.417969 187.976562 274.511719 187.972656 274.546875 C 188.03125 274.726562 188.03125 275.371094 188.074219 275.5 C 188.148438 275.714844 187.988281 275.90625 188.003906 276.121094 C 188 276.386719 188.117188 276.957031 188.144531 277.039062 C 188.5625 277.871094 188.144531 277.535156 188.601562 278.707031 C 188.859375 279.304688 189.632812 279.203125 190.386719 279.3125 C 190.574219 279.355469 190.734375 279.226562 190.898438 279.15625 C 191.328125 278.964844 191.222656 278.964844 191.445312 278.359375 C 191.503906 278.207031 191.4375 278.027344 191.535156 277.890625 C 191.597656 277.753906 191.859375 277.632812 191.96875 278.019531 C 192.015625 278.1875 191.980469 278.363281 191.996094 278.535156 C 192.242188 279.175781 192.046875 278.914062 192.492188 279.222656 C 193.148438 279.648438 193.582031 279.035156 193.859375 278.820312 C 194.054688 278.789062 194.253906 278.828125 194.453125 278.816406 C 194.871094 278.734375 194.714844 278.355469 194.972656 278.265625 C 195.140625 278.222656 195.3125 278.289062 195.480469 278.25 C 195.621094 278.253906 195.707031 278.128906 195.789062 278.039062 C 195.859375 277.882812 195.742188 277.539062 195.992188 277.527344 C 196.589844 277.4375 196.867188 277.644531 196.996094 277.445312 C 197.234375 276.863281 197.003906 275.65625 195.660156 274.507812 C 195.324219 274.21875 195.832031 274.402344 194.039062 273.089844 C 193.460938 272.738281 193.523438 272.03125 193.347656 271.378906 C 193.304688 271.269531 193.320312 271.152344 193.273438 271.046875 C 193.160156 270.730469 193.183594 270.796875 193.167969 270.71875 C 193.085938 270.566406 192.921875 269.90625 192.921875 269.90625 C 192.917969 269.570312 192.984375 269.410156 193.058594 269.289062 C 193.078125 269.226562 193.09375 269.164062 193.105469 269.101562 C 193.125 269.0625 193.148438 269.027344 193.171875 268.992188 C 193.171875 268.976562 193.175781 268.9375 193.175781 268.921875 C 193.210938 268.859375 193.246094 268.796875 193.28125 268.738281 C 193.28125 268.71875 193.285156 268.683594 193.285156 268.664062 C 193.308594 268.625 193.328125 268.589844 193.347656 268.554688 C 193.371094 268.417969 193.488281 268.324219 193.511719 268.1875 C 193.667969 267.875 193.742188 267.726562 193.773438 267.59375 C 191.207031 267.121094 189.714844 266.804688 189.679688 266.796875 C 191.015625 266.574219 192.363281 266.3125 193.710938 266.015625 Z M 193.710938 266.019531"/></g><path fill="#8B2025" d="M 173.414062 146.039062 C 171.242188 141.46875 169.933594 140.738281 167.859375 134.742188 C 164.625 125.40625 165.78125 127.789062 165.199219 125.773438 C 165.113281 125.472656 164.96875 125.199219 164.863281 124.910156 C 163.964844 121.324219 164.144531 121.40625 164.546875 121.074219 C 164.699219 120.820312 165.777344 119.9375 167.675781 118.699219 C 164.378906 112.554688 160.480469 106.976562 156.332031 102.351562 C 151.0625 107.617188 142.277344 121.074219 138.273438 130.980469 C 133.894531 142.199219 134.96875 155.875 138.648438 167.253906 C 138.921875 166.617188 141.320312 151.839844 149.058594 143.242188 C 155.675781 146.257812 163.851562 152.882812 168.824219 157.523438 C 170.761719 154.722656 172.851562 152.03125 175.011719 149.40625 C 174.875 149.160156 174.722656 148.871094 174.554688 148.523438 C 174.15625 147.703125 173.804688 146.863281 173.414062 146.039062 Z M 173.414062 146.039062"/><path fill="#8B2025" d="M 212.210938 114.753906 C 212.246094 114.78125 218.136719 117.4375 218.722656 118.0625 C 219.035156 118.351562 219.199219 118.898438 219.171875 118.96875 C 219.121094 119.152344 219.1875 119.34375 219.128906 119.523438 C 218.664062 120.96875 218.382812 122.367188 218.332031 123.875 C 218.324219 124.078125 215.8125 135.140625 212.992188 139.980469 C 212.09375 141.519531 210.5 145.730469 210.484375 145.769531 C 209.476562 148.246094 210.152344 147.304688 208.707031 149.429688 C 208.191406 150.1875 207.996094 150.804688 207.847656 151.566406 C 212.007812 148.261719 216.613281 145.082031 220.671875 143.246094 C 228.15625 151.332031 230.859375 166.664062 231.089844 167.246094 C 234.871094 155.699219 235.980469 141.09375 230.855469 129.53125 C 225.214844 117.210938 218.09375 107.179688 213.398438 102.347656 C 210.5625 105.519531 208.0625 108.882812 205.867188 112.285156 C 207.9375 112.980469 210.175781 113.816406 212.09375 114.722656 C 212.132812 114.734375 212.167969 114.746094 212.210938 114.753906 Z M 212.210938 114.753906"/><path fill="#8B2025" d="M 198.523438 126.246094 C 198.582031 126.515625 198.660156 126.785156 198.757812 127.046875 C 198.832031 127.25 199.015625 127.5 199.019531 127.714844 C 199.066406 127.933594 198.996094 128.152344 199.007812 128.371094 C 199.007812 128.472656 198.9375 128.558594 198.949219 128.660156 C 198.992188 129.113281 198.859375 129.566406 198.902344 130.019531 C 198.914062 130.789062 198.773438 130.984375 198.359375 131.351562 C 198.230469 131.46875 197.640625 131.695312 197.648438 131.417969 C 197.640625 131.382812 197.574219 131.382812 197.566406 131.484375 C 197.535156 132.054688 197.484375 132.617188 197.269531 133.160156 C 197.128906 133.519531 196.929688 133.988281 196.605469 134.21875 C 196.546875 134.28125 196.378906 134.585938 196.1875 134.679688 C 196.152344 135.5625 195.496094 138.605469 195.8125 139.550781 C 196.023438 140.527344 196.742188 141.8125 197.632812 142.523438 C 197.742188 142.613281 197.902344 142.546875 198.019531 142.617188 C 198.257812 142.773438 198.558594 142.804688 198.777344 142.996094 C 198.882812 143.078125 199.019531 143.085938 199.144531 143.117188 C 199.269531 143.152344 199.371094 143.238281 199.484375 143.296875 C 200.0625 143.578125 199.976562 143.617188 200.230469 143.960938 C 200.265625 144.003906 200.300781 144.058594 200.359375 144.0625 C 200.5 144.09375 201.152344 144.273438 201.398438 143.886719 C 202.117188 142.789062 205.859375 138.371094 205.894531 138.335938 C 208.59375 135.109375 208.222656 135.644531 210.152344 129.597656 C 211.925781 123.859375 212.972656 123.75 210.433594 121.628906 C 207.933594 119.527344 205.480469 117.933594 203.21875 116.679688 C 201.398438 119.890625 199.839844 123.085938 198.53125 126.132812 C 198.542969 126.171875 198.554688 126.210938 198.5625 126.246094 C 198.550781 126.246094 198.535156 126.246094 198.523438 126.246094 Z M 198.523438 126.246094"/><path fill="#8B2025" d="M 135.203125 180.105469 C 130.730469 170.742188 128.25 160.882812 129.757812 146.300781 C 130.054688 145.179688 112.476562 126.414062 89.019531 118.660156 C 87.738281 136.199219 92.476562 156.71875 98.734375 168.152344 C 108.351562 168.445312 121.105469 171.816406 135.203125 180.105469 Z M 135.203125 180.105469"/><path fill="#8B2025" d="M 238.25 177.910156 C 247.269531 172.894531 259.980469 168.570312 270.996094 168.152344 C 277.214844 156.941406 282.015625 136.113281 280.714844 118.660156 C 268.011719 122.785156 250.824219 132.96875 240.003906 145.996094 C 239.957031 149.292969 242.789062 162.949219 234.53125 180.101562 C 235.789062 179.402344 236.976562 178.585938 238.25 177.910156 Z M 238.25 177.910156"/><path fill="#8B2025" d="M 155.292969 220.917969 C 155.277344 220.914062 155.242188 220.910156 155.222656 220.90625 C 154.765625 220.625 152.191406 219.6875 151.363281 218.269531 C 150.675781 217.355469 150.652344 216.871094 150.589844 216.714844 C 150.597656 216.492188 150.566406 216.273438 150.5625 216.050781 C 150.542969 213.253906 151.023438 212.332031 152.519531 210.71875 C 152.554688 210.6875 155.222656 207.832031 155.921875 207.347656 C 156.320312 206.964844 157.199219 206.199219 158.375 205.222656 C 158.046875 189.042969 162.695312 173.894531 168.722656 164.457031 C 162.777344 159.851562 156.824219 155.242188 150.863281 150.65625 C 143.71875 162.179688 141.007812 179.851562 141.449219 193.816406 C 142.375 216.332031 157.25 238.355469 174.03125 251.691406 C 173.679688 250.875 165.929688 238.011719 161.449219 222.742188 C 161.308594 222.6875 161.207031 222.648438 161.195312 222.644531 C 159.171875 221.902344 157.28125 221.96875 155.296875 220.917969 Z M 155.292969 220.917969"/><path fill="#8B2025" d="M 205.152344 162.679688 C 204.949219 162.949219 204.308594 166.390625 203.996094 169.753906 C 214.558594 190.953125 214.667969 221.285156 198.050781 250.691406 C 198.050781 250.804688 198.054688 250.917969 198.042969 251.03125 C 198.042969 251.039062 198.011719 251.140625 197.960938 251.3125 C 201.074219 248.765625 214.917969 236.054688 222.804688 217.566406 C 233.128906 193.207031 227.195312 164.195312 218.882812 150.660156 C 214.410156 154.097656 209.949219 157.550781 205.484375 161 C 205.453125 161.21875 205.414062 161.433594 205.375 161.652344 C 205.3125 161.984375 205.15625 162.34375 205.152344 162.679688 Z M 205.152344 162.679688"/><path fill="#8B2025" d="M 118.871094 232.023438 C 110.949219 222.476562 104.746094 213.707031 100.03125 200.367188 C 94.769531 185.460938 95.457031 175.347656 95.371094 173.625 C 92.636719 168.140625 76.074219 155.648438 61.875 153.191406 C 58.980469 171.28125 63.703125 187.75 73.0625 203.316406 C 80.855469 216.457031 103.882812 228.277344 118.871094 232.023438 Z M 118.871094 232.023438"/><path fill="#8B2025" d="M 274.570312 173.273438 C 274.21875 173.644531 274.382812 174.1875 274.347656 174.644531 C 274.84375 195.636719 264.410156 215.894531 250.871094 232.019531 C 265.871094 228.25 285.382812 217.738281 294.042969 207.074219 C 299.15625 200.980469 311.921875 178.929688 307.867188 153.1875 C 306.675781 153.308594 286.878906 157.691406 274.570312 173.273438 Z M 274.570312 173.273438"/><path fill="#8B2025" d="M 101.390625 174.25 C 102.289062 186.320312 102.996094 203.097656 116.46875 221.429688 C 135.347656 246.898438 168.476562 259.824219 178.582031 261.585938 C 178.433594 261.414062 132.511719 229.667969 135.972656 186.601562 C 134.042969 184.949219 120.308594 176.414062 101.390625 174.25 Z M 101.390625 174.25"/><path fill="#8B2025" d="M 195.5625 259.894531 C 195.53125 260.070312 195.648438 260.207031 195.394531 260.324219 C 195.292969 260.375 195.230469 260.476562 195.140625 260.542969 C 195.042969 260.601562 194.964844 260.644531 194.902344 260.675781 C 210.5 256.199219 253.765625 237.390625 264.875 197.9375 C 267.109375 190.234375 267.90625 182.214844 268.351562 174.238281 C 257.300781 175.1875 241.332031 180.933594 233.769531 186.605469 C 234.476562 194.773438 232.816406 202.957031 230.300781 210.703125 C 222.03125 235.125 204.621094 250.917969 196.074219 257.761719 C 195.988281 258.066406 195.910156 258.339844 195.851562 258.503906 C 195.710938 258.960938 195.664062 259.433594 195.5625 259.898438 Z M 195.5625 259.894531"/><path fill="#8B2025" d="M 189.003906 201.105469 C 181.285156 204.339844 181.21875 206.222656 170.921875 211.53125 C 168.558594 212.867188 168.757812 212.855469 167.421875 214 C 167.324219 214.089844 167.203125 214.148438 167.125 214.253906 C 167.097656 214.34375 167.070312 214.335938 168.542969 215.023438 C 168.804688 215.152344 169.09375 215.015625 169.476562 215.441406 C 169.621094 215.601562 170.332031 215.882812 171.179688 216.414062 C 172.46875 217.132812 172.320312 217.136719 172.597656 217.300781 C 173.386719 217.796875 173.65625 218.121094 173.90625 218.15625 C 174.421875 218.242188 174.464844 218.566406 174.628906 218.75 C 175.097656 219.125 175.238281 218.925781 175.53125 219.179688 C 175.644531 219.269531 175.75 219.382812 175.898438 219.425781 C 176.476562 219.609375 176.148438 219.6875 177.300781 220.230469 C 177.46875 220.308594 177.609375 220.433594 177.78125 220.515625 C 178.066406 220.679688 178.40625 220.738281 178.683594 220.925781 C 179.625 221.535156 179.882812 221.15625 180.238281 221.507812 C 180.527344 221.808594 180.933594 221.957031 181.324219 222.0625 C 181.449219 222.09375 181.578125 222.070312 181.703125 222.078125 C 182.128906 222.089844 182.019531 222.6875 182.164062 222.914062 C 182.222656 222.953125 182.769531 223.203125 183.050781 223.300781 C 183.0625 223.3125 183.09375 223.335938 183.109375 223.347656 C 184.117188 223.652344 187.324219 225.253906 189.21875 224.652344 C 189.40625 224.589844 189.609375 224.613281 189.804688 224.605469 C 191.34375 224.613281 191.367188 224.550781 191.992188 224.84375 C 192.039062 224.859375 192.09375 224.890625 192.148438 224.875 C 192.148438 224.875 192.425781 221.347656 193.015625 216.925781 C 193.371094 214.488281 193.226562 207.308594 193.121094 206.664062 C 192.78125 203.519531 190.328125 200.472656 189 201.105469 Z M 189.003906 201.105469"/><path fill="#8B2025" d="M 190.199219 254.140625 C 190.246094 252.976562 190.425781 254.078125 190.316406 251.171875 C 190.28125 250.574219 190.703125 250.390625 190.535156 249.5625 C 190.535156 249.527344 190.621094 248.6875 190.542969 248.316406 C 190.527344 248.035156 190.539062 247.75 190.539062 247.46875 C 190.546875 247.335938 190.371094 245.59375 190.511719 245.183594 C 190.8125 244.261719 190.933594 244.261719 190.886719 244.105469 C 190.828125 243.902344 190.46875 243.941406 190.398438 243.742188 C 190.367188 243.652344 190.414062 243.554688 190.425781 243.460938 C 190.453125 243.242188 190.019531 243.136719 189.882812 242.996094 C 189.746094 242.867188 189.726562 242.664062 189.695312 242.492188 C 189.707031 242.023438 189.402344 241.910156 189.535156 241.238281 C 189.535156 241.234375 189.589844 240.472656 189.59375 240.445312 C 189.757812 239.664062 189.296875 239.242188 188.128906 237.382812 C 187.132812 235.941406 187.53125 236.945312 186.800781 235.164062 C 186.472656 234.507812 186.101562 233.875 185.671875 233.28125 C 184.390625 231.574219 180.113281 229.078125 180.074219 229.054688 C 179.914062 229.011719 179.664062 228.820312 179.285156 228.679688 C 179.140625 228.746094 179.003906 228.820312 178.863281 228.894531 C 178.753906 228.898438 178.632812 228.910156 178.539062 228.839844 C 177.332031 228 175.488281 227.191406 175.199219 227.03125 C 175.179688 227.03125 175.144531 227.023438 175.125 227.023438 C 174.871094 226.875 173.582031 226.46875 173.292969 226.382812 C 172.613281 226.105469 171.867188 226.105469 171.539062 226.054688 C 171.121094 225.996094 171.007812 225.726562 170.214844 225.476562 C 170.195312 225.46875 168.117188 224.902344 166.265625 224.367188 C 170.417969 239.746094 178.996094 252.566406 186.800781 259.613281 C 187.9375 258.382812 189.027344 257.117188 190.074219 255.8125 C 190.074219 255.808594 190.078125 255.804688 190.078125 255.800781 C 190.101562 255.699219 190.140625 254.328125 190.199219 254.140625 Z M 190.199219 254.140625"/><path fill="#8B2025" d="M 176.246094 193.085938 C 176.414062 192.890625 177.40625 191.914062 177.726562 191.898438 C 177.933594 191.621094 178.269531 191.070312 178.796875 190.648438 C 178.957031 190.539062 179.03125 190.335938 179.21875 190.253906 C 179.46875 190.144531 179.980469 190.199219 179.96875 189.746094 C 179.957031 189.40625 179.234375 189.25 179.613281 188.488281 C 179.835938 188.035156 180.035156 187.546875 180.332031 187.140625 C 180.574219 186.808594 180.730469 186.792969 180.699219 186.105469 C 180.65625 185.160156 180.5625 183.691406 180.933594 182.644531 C 182.546875 178.058594 182.621094 178.792969 182.441406 175.648438 C 182.074219 169.234375 181.042969 166.539062 180.785156 165.679688 C 180.773438 165.644531 179.847656 162.617188 179.851562 162.476562 C 179.84375 162.441406 179.613281 161.320312 179.457031 160.882812 C 179.039062 159.738281 178.628906 159.625 178.609375 159.121094 C 178.585938 158.53125 178.820312 158.558594 178.289062 157.636719 C 178.164062 157.421875 178.085938 157.269531 178.027344 157.136719 C 170.074219 169.976562 164.785156 184.9375 163.878906 200.847656 C 165.90625 199.3125 168.011719 197.804688 169.804688 196.6875 C 173.261719 194.570312 175.75 193.730469 176.246094 193.085938 Z M 176.246094 193.085938"/><path fill="#8B2025" d="M 207.066406 205.507812 C 206.582031 207.125 205.855469 209.328125 204.761719 213.011719 C 198.957031 233.738281 200.273438 233.957031 199.980469 239.671875 C 204.742188 229.179688 207.222656 217.496094 207.066406 205.507812 Z M 207.066406 205.507812"/><g clip-path="url(#c)"><path fill="#8B2025" d="M 37.515625 240.953125 C 99.925781 279.722656 134.140625 274.203125 178.699219 267.09375 C 179.15625 267.015625 179.625 266.984375 180.058594 266.800781 C 160.222656 263.457031 140.496094 252.328125 127.855469 239.765625 C 100.671875 230.480469 56.886719 233.417969 37.511719 240.953125 Z M 37.515625 240.953125"/></g><g clip-path="url(#d)"><path fill="#8B2025" d="M 327.125 239.398438 C 280.386719 227.097656 242.4375 238.988281 241.519531 240.082031 C 230.898438 251.171875 212.027344 261.992188 193.714844 266.019531 C 193.765625 266.296875 193.734375 266.996094 193.792969 267.132812 C 193.800781 267.359375 193.808594 267.472656 193.777344 267.597656 C 203.921875 269.464844 230.878906 273.804688 251.421875 271.710938 C 280.355469 268.992188 307.609375 256.191406 332.230469 240.949219 C 330.582031 240.28125 328.832031 239.882812 327.125 239.398438 Z M 327.125 239.398438"/></g></svg>